<svg id="Layer_1" data-name="Layer 1" xmlns="http://www.w3.org/2000/svg" viewBox="0 0 51.2 51.2"><defs><style>.cls-1{fill:#010101;}</style></defs><path class="cls-1" d="M286.69,397.81a.83.83,0,0,0-1.11-.33,27.77,27.77,0,0,0-2.55,1.58.82.82,0,0,0-.19,1.15.81.81,0,0,0,.66.34.85.85,0,0,0,.48-.15,24.24,24.24,0,0,1,2.38-1.48A.82.82,0,0,0,286.69,397.81Z" transform="translate(-272.17 -394.4)"/><path class="cls-1" d="M315.87,401.9a25.6,25.6,0,0,0-27-5.89.82.82,0,0,0,.57,1.53,24,24,0,1,1-7.9,4.86.8.8,0,0,0,.05-1.15.81.81,0,0,0-1.16-.05,25.54,25.54,0,0,0-6,8.37,25.6,25.6,0,1,0,41.48-7.67Z" transform="translate(-272.17 -394.4)"/><path class="cls-1" d="M313.08,422.83a.82.82,0,0,0-1-.6.8.8,0,0,0-.6,1,13.19,13.19,0,0,1-.7,9,12,12,0,0,1-5.6,5.35,17,17,0,0,0,1.82-9.14,22.29,22.29,0,0,0-1.15-5.95.83.83,0,0,0-.86-.53.82.82,0,0,0-.72.7,4.43,4.43,0,0,1-1.75,2.59c-1.2-1.59-1.24-4.76-1.14-6a.83.83,0,0,0-.32-.72.81.81,0,0,0-.78-.12,9.6,9.6,0,0,0-5.67,5.74,7.43,7.43,0,0,1-1.74-2.41.81.81,0,0,0-1.51,0,14.9,14.9,0,0,0,1,13.41,16.77,16.77,0,0,0,2.1,2.83c-5.07-1.14-8.41-3.4-9.93-6.72-2.19-4.79,0-10.78,1.4-12.93a11,11,0,0,0,1.61-6.8,5.7,5.7,0,0,1,3.8,3.8.82.82,0,0,0,1.61-.24c0-.06-.29-5.43,4.23-7.82a20.42,20.42,0,0,0,6.24-4.9,10.88,10.88,0,0,1,0,8.26c-.61,1.88-1.24,3.82-.08,6.33a.81.81,0,0,0,1.47,0,7.28,7.28,0,0,1,3.9-3.22,7.91,7.91,0,0,0,1.17,5c.18.34.34.7.5,1.06a.82.82,0,0,0,1.5-.66c-.17-.39-.36-.78-.55-1.16l0,0c-1.74-3.05-.76-4.87-.68-5a.8.8,0,0,0,0-.89.84.84,0,0,0-.84-.35,10.31,10.31,0,0,0-5.42,3,8,8,0,0,1,.61-3.62c.8-2.47,1.8-5.55-.6-10.78a.81.81,0,0,0-1.45-.06,16.76,16.76,0,0,1-6.49,5.53,9.44,9.44,0,0,0-4.82,6.54,7.44,7.44,0,0,0-4.89-2.71.84.84,0,0,0-.72.26.81.81,0,0,0-.2.73,9.87,9.87,0,0,1-1.22,6.78c-1.24,1.91-4.19,8.67-1.52,14.51,2,4.43,6.72,7.17,13.94,8.15a.82.82,0,0,0,.58-1.48,15.07,15.07,0,0,1-3.8-4.29,13,13,0,0,1-1.41-10.3,5.92,5.92,0,0,0,2.44,2.1.86.86,0,0,0,.7,0,.84.84,0,0,0,.41-.56,8.22,8.22,0,0,1,3.82-5.09c0,1.8.36,4.92,2.18,6.44a.8.8,0,0,0,.94.08,7.76,7.76,0,0,0,2.06-1.87c.68,3.12,1.28,9.1-2.51,13.68a.81.81,0,0,0-.05,1,.83.83,0,0,0,.94.32c4.32-1.45,7.34-3.87,9-7.18A14.7,14.7,0,0,0,313.08,422.83Z" transform="translate(-272.17 -394.4)"/></svg>