<svg id="Layer_1" data-name="Layer 1" xmlns="http://www.w3.org/2000/svg" xmlns:xlink="http://www.w3.org/1999/xlink" viewBox="0 0 430.92 257.62"><defs><style>.cls-1{fill:#00b3b2;}.cls-14,.cls-2,.cls-5,.cls-8{fill:none;}.cls-10,.cls-11,.cls-12,.cls-13,.cls-15,.cls-2,.cls-3,.cls-4,.cls-5,.cls-6,.cls-7,.cls-8,.cls-9{stroke:#010101;stroke-miterlimit:10;}.cls-2{stroke-width:3.71px;stroke-dasharray:11.82 11.82;}.cls-13,.cls-3{fill:#010101;}.cls-14,.cls-3,.cls-8{stroke-linecap:round;}.cls-10,.cls-11,.cls-12,.cls-3,.cls-8,.cls-9{stroke-width:4px;}.cls-4{fill:#d9c8ae;}.cls-4,.cls-5,.cls-6{stroke-width:5px;}.cls-15,.cls-6,.cls-7{fill:#fff;}.cls-7{stroke-width:8px;}.cls-16,.cls-9{fill:#231f20;}.cls-10{fill:url(#radial-gradient);}.cls-11{fill:url(#radial-gradient-2);}.cls-12{fill:url(#radial-gradient-3);}.cls-13{stroke-width:0.18px;}.cls-14{stroke:#231f20;stroke-linejoin:round;stroke-width:3px;}.cls-15{stroke-width:3.85px;}.cls-16{font-size:52.42px;font-family:Montserrat-SemiBold, Montserrat;font-weight:600;}</style><radialGradient id="radial-gradient" cx="598.82" cy="453.2" r="26.32" gradientTransform="matrix(-1, 0, 0, 1, 773.22, -321.26)" gradientUnits="userSpaceOnUse"><stop offset="0" stop-color="#dcf1f6" stop-opacity="0"/><stop offset="0.17" stop-color="#daf0f6" stop-opacity="0.01"/><stop offset="0.31" stop-color="#d5eff4" stop-opacity="0.06"/><stop offset="0.43" stop-color="#cbebf3" stop-opacity="0.14"/><stop offset="0.56" stop-color="#bee7f0" stop-opacity="0.25"/><stop offset="0.67" stop-color="#ace1ec" stop-opacity="0.39"/><stop offset="0.78" stop-color="#97dbe8" stop-opacity="0.56"/><stop offset="0.89" stop-color="#7ed3e3" stop-opacity="0.76"/><stop offset="1" stop-color="#62c9dd" stop-opacity="0.99"/><stop offset="1" stop-color="#61c9dd"/></radialGradient><radialGradient id="radial-gradient-2" cx="658.21" cy="458.73" r="26.32" gradientTransform="matrix(-1, 0, 0, 1, 773.22, -321.26)" gradientUnits="userSpaceOnUse"><stop offset="0" stop-color="#dcf1f6" stop-opacity="0"/><stop offset="0.19" stop-color="#daf0f6" stop-opacity="0.01"/><stop offset="0.33" stop-color="#d5eff5" stop-opacity="0.06"/><stop offset="0.45" stop-color="#ccecf3" stop-opacity="0.13"/><stop offset="0.57" stop-color="#bfe8f0" stop-opacity="0.23"/><stop offset="0.68" stop-color="#afe2ed" stop-opacity="0.37"/><stop offset="0.78" stop-color="#9bdce9" stop-opacity="0.53"/><stop offset="0.88" stop-color="#83d4e4" stop-opacity="0.72"/><stop offset="0.98" stop-color="#68cbde" stop-opacity="0.94"/><stop offset="1" stop-color="#61c9dd"/></radialGradient><radialGradient id="radial-gradient-3" cx="628.11" cy="456.14" r="3.59" gradientTransform="matrix(-1, 0, 0, 1, 863.85, 0)" xlink:href="#radial-gradient-2"/></defs><ellipse class="cls-1" cx="116.31" cy="133.47" rx="114.46" ry="111.27"/><ellipse class="cls-2" cx="116.31" cy="133.47" rx="114.46" ry="111.27"/><path id="Cheveux" class="cls-3" d="M274.59,414.66S263.33,326,154.49,385.12c0,0,12.2-16.62,0-26.77s-26.27-.92-26.27-.92-13.13,13.84-9.38,29.54-20.64,4.61-21.58-5.54-5.63,35.07,31,21.23c0,0-8.75,63.07,30.44,70.87l12.1-13.13S182.43,393.12,274.59,414.66Z" transform="translate(-90.63 -321.26)"/><g id="Corsp"><path id="Corps" class="cls-4" d="M152.66,567.35s-27.89.5-5.74-45.16c0,0,9.85-25.62,28.72-24.82,0,0-3.08-5-7-10.92,0,0-10.25,3.17-16.82-9.13s6.95-20.82,6.95-20.82,5.33-.5,11.08,5.85c0,0,1.25-28.32,11.1-43s81.64-19.06,92.21-7.74c0,0,12.41,53.41,9.53,60.55S263,497.37,249.48,501.54c0,0,11.46,11.58,35.77,24.5,0,0,10.71,18.54-35.07,12,0,0-.75,17.83,1.3,31.73" transform="translate(-90.63 -321.26)"/><path class="cls-5" d="M161.87,534.66s-7.34,19.24-9.21,32.69" transform="translate(-90.63 -321.26)"/></g><g id="Robe"><path id="Robe-2" data-name="Robe" class="cls-6" d="M249.25,501.73S234.64,503,233.1,504.5c-11.09,11.1-31.49,11-40.62-2.3-2-2.93-12.38.34-17.84-5.54,0,0-22.64.73-33.72,35.6,0,0,5.33,9,18.87,8.2,0,0-6.62,18.28-6.62,32.23,0,0,67.08,10.31,98.16-3.54,0,0-1.69-5.3-.05-30.33,0,0,15.29.56,15.18.39-2.47-3.62-6.26-9.75,3.28-22.47C269.74,516.74,252.46,503.75,249.25,501.73Z" transform="translate(-90.63 -321.26)"/><path class="cls-7" d="M249.17,559.31s-57.38,10.15-94.61,1.38" transform="translate(-90.63 -321.26)"/><path class="cls-7" d="M251.09,544.6s-56.68,8.09-92.14-.4" transform="translate(-90.63 -321.26)"/></g><g id="Visage"><path id="Bouche" class="cls-8" d="M242,484.81s-4.69,6.09-10.44,1.16" transform="translate(-90.63 -321.26)"/><g id="Yeux"><circle class="cls-9" cx="166.32" cy="137.09" r="2.77"/><circle class="cls-9" cx="119.85" cy="140.17" r="2.77"/></g></g><g id="Lunettes"><ellipse class="cls-10" cx="174.39" cy="131.94" rx="25.38" ry="27.23"/><ellipse class="cls-11" cx="115.01" cy="137.48" rx="25.38" ry="27.23"/><path class="cls-12" d="M240.66,456.53s-4.1-4.1-9.84.82" transform="translate(-90.63 -321.26)"/></g><circle id="Grain_de_beauté" data-name="Grain de beauté" class="cls-13" cx="103.16" cy="152.82" r="2"/><path class="cls-14" d="M201.43,519" transform="translate(-90.63 -321.26)"/><path class="cls-15" d="M401.85,323.18c-65.05,0-117.78,34.17-117.78,76.32,0,22.61,15.18,42.92,39.29,56.89-4.41,11.37-11,23.14-20.16,26.56-16.88,6.3,35.22,8.43,65.69-10.17a178.26,178.26,0,0,0,33,3c65,0,117.77-34.17,117.77-76.31S466.89,323.18,401.85,323.18Z" transform="translate(-90.63 -321.26)"/><text class="cls-16" transform="translate(228.29 100.71) scale(0.73 1)">Bonjour !</text></svg>