<?xml version="1.0" encoding="iso-8859-1"?>
<!-- Generator: Adobe Illustrator 19.0.0, SVG Export Plug-In . SVG Version: 6.00 Build 0)  -->
<svg version="1.1" id="Capa_1" xmlns="http://www.w3.org/2000/svg" xmlns:xlink="http://www.w3.org/1999/xlink" x="0px" y="0px"
	 viewBox="0 0 512.031 512.031" style="enable-background:new 0 0 512.031 512.031;" xml:space="preserve">
<g>
	<g>
		<g>
			<polygon points="480,131.039 512,131.039 512,3.039 448,3.039 448,35.039 480,35.039 			"/>
			<polygon points="32,35.039 352,35.039 352,3.039 0,3.039 0,371.039 240,371.039 240,339.039 32,339.039 			"/>
			<path d="M498.223,223.95c-0.818-0.877-1.666-1.725-2.543-2.543c-4.047-3.826-6.26-9.202-6.08-14.768
				c0.469-14.229-4.969-28.018-15.024-38.096c-10.132-9.974-23.883-15.403-38.096-15.04c-5.6,0.152-11-2.088-14.848-6.16
				c-19.388-20.766-51.938-21.883-72.704-2.496c-0.86,0.803-1.693,1.635-2.496,2.496c-3.756,4.193-9.21,6.458-14.832,6.16
				c-28.384-0.961-52.174,21.269-53.135,49.654c-0.039,1.155-0.039,2.311-0.001,3.466c0.185,5.603-2.054,11.014-6.144,14.848
				c-20.766,19.362-21.904,51.891-2.543,72.657c0.818,0.877,1.666,1.725,2.543,2.543c4.087,3.829,6.326,9.234,6.144,14.832
				c-0.469,14.229,4.969,28.018,15.024,38.096c3.141,3.05,6.676,5.665,10.512,7.776v151.616l80-40l80,40V357.359
				c3.833-2.134,7.367-4.765,10.512-7.824c10.052-10.073,15.49-23.856,15.024-38.08c-0.185-5.603,2.054-11.014,6.144-14.848
				C516.446,277.246,517.584,244.716,498.223,223.95z M432,457.151l-48-24l-48,24v-92.176c3.995,0.78,7.644,2.794,10.432,5.76
				c19.388,20.766,51.938,21.883,72.704,2.496c0.86-0.803,1.693-1.635,2.496-2.496c2.79-2.854,6.426-4.734,10.368-5.36V457.151z
				 M474.802,272.301c-0.299,0.32-0.61,0.631-0.93,0.93l-0.032,0c-10.838,10.143-16.76,24.477-16.24,39.312
				c0.211,5.384-1.85,10.61-5.68,14.4c-3.731,3.919-8.998,5.996-14.4,5.68c-14.841-0.526-29.179,5.417-39.296,16.288
				c-7.682,7.838-20.264,7.964-28.102,0.282c-0.095-0.093-0.189-0.187-0.282-0.282c-9.721-10.409-23.325-16.319-37.568-16.32h-1.744
				c-10.72,0.395-19.731-7.975-20.126-18.696c-0.017-0.456-0.018-0.912-0.002-1.368c0.507-14.834-5.426-29.163-16.272-39.296
				c-7.838-7.324-8.254-19.616-0.93-27.454c0.299-0.32,0.61-0.631,0.93-0.93c10.85-10.137,16.784-24.472,16.272-39.312
				c-0.211-5.384,1.85-10.61,5.68-14.4c3.777-3.851,9.012-5.915,14.4-5.68c14.803,0.321,29.061-5.589,39.296-16.288
				c7.682-7.838,20.264-7.964,28.102-0.282c0.095,0.093,0.189,0.187,0.282,0.282c10.23,10.734,24.521,16.644,39.344,16.272
				c10.721-0.378,19.718,8.006,20.097,18.727c0.016,0.461,0.016,0.923-0.001,1.385c-0.507,14.834,5.426,29.163,16.272,39.296
				C481.71,252.172,482.126,264.463,474.802,272.301z"/>
			<path d="M384,195.039c-35.346,0-64,28.654-64,64c0,35.346,28.654,64,64,64c35.346,0,64-28.654,64-64
				C448,223.693,419.346,195.039,384,195.039z M384,291.039c-17.673,0-32-14.327-32-32s14.327-32,32-32c17.673,0,32,14.327,32,32
				S401.673,291.039,384,291.039z"/>
			<rect x="160" y="67.039" width="192" height="32"/>
			<rect x="64" y="147.039" width="192" height="32"/>
			<rect x="64" y="211.039" width="160" height="32"/>
			<rect x="192" y="275.039" width="32" height="32"/>
			<rect x="64" y="275.039" width="96" height="32"/>
			<rect x="384" y="3.039" width="32" height="32"/>
		</g>
	</g>
</g>
<g>
</g>
<g>
</g>
<g>
</g>
<g>
</g>
<g>
</g>
<g>
</g>
<g>
</g>
<g>
</g>
<g>
</g>
<g>
</g>
<g>
</g>
<g>
</g>
<g>
</g>
<g>
</g>
<g>
</g>
</svg>
