<svg id="Layer_1" data-name="Layer 1" xmlns="http://www.w3.org/2000/svg" viewBox="0 0 49.6 49.6"><defs><style>.cls-1{fill:#00b3b2;}.cls-2{fill:#010101;}</style></defs><path class="cls-1" d="M290.8,408.5h17.6v4.8H290.8Z" transform="translate(-273.2 -395.7)"/><path class="cls-1" d="M289.2,408.5h-9.6v11.2h5.6v-2.4h4Z" transform="translate(-273.2 -395.7)"/><path class="cls-1" d="M297.2,426.9h5.6v9.6h-5.6Z" transform="translate(-273.2 -395.7)"/><path class="cls-2" d="M279.6,402.1h1.6v1.6h-1.6Z" transform="translate(-273.2 -395.7)"/><path class="cls-2" d="M282.8,402.1h1.6v1.6h-1.6Z" transform="translate(-273.2 -395.7)"/><path class="cls-2" d="M286,402.1h1.6v1.6H286Z" transform="translate(-273.2 -395.7)"/><path class="cls-2" d="M287.6,419.7h1.6v1.6h-1.6Z" transform="translate(-273.2 -395.7)"/><path class="cls-2" d="M290.8,419.7h1.6v1.6h-1.6Z" transform="translate(-273.2 -395.7)"/><path class="cls-2" d="M298,395.7a24.83,24.83,0,0,0-12.17,3.2H276.4v9.43a24.83,24.83,0,0,0-3.2,12.17,24.48,24.48,0,0,0,2.51,10.87l1.43-.7a23.18,23.18,0,0,1-.74-18.61V422.9h8v2.4H286v-.8h32v7.74a23.47,23.47,0,0,1-5.89,6.66h-18.6v1.6h16.23a23.14,23.14,0,0,1-19.39,1.9l-.53,1.51A24.8,24.8,0,1,0,298,395.7Zm0,1.6a23,23,0,0,1,8.45,1.6H289.57A23,23,0,0,1,298,397.3Zm-20,3.2h31.74l.26.15v4.65H278Zm6.4,16v4.8H278V406.9h32v9.6Zm33.6,6.4H286v-4.8h32Zm-6.4-6.4V401.72a23.15,23.15,0,0,1,8,27.23V416.5Z" transform="translate(-273.2 -395.7)"/><path class="cls-1" d="M285.2,445.3a10.4,10.4,0,1,1,10.4-10.4A10.42,10.42,0,0,1,285.2,445.3Z" transform="translate(-273.2 -395.7)"/><path class="cls-2" d="M282.82,441.11l3.21-12.8,1.55.39-3.21,12.79Z" transform="translate(-273.2 -395.7)"/><path class="cls-2" d="M289,439.4l-1.24-1,2.8-3.5-2.8-3.5,1.24-1,3.6,4.5Z" transform="translate(-273.2 -395.7)"/><path class="cls-2" d="M281.38,439.4l-3.6-4.5,3.6-4.5,1.24,1-2.8,3.5,2.8,3.5Z" transform="translate(-273.2 -395.7)"/><path class="cls-2" d="M294,419.7h1.6v1.6H294Z" transform="translate(-273.2 -395.7)"/><path class="cls-2" d="M290.8,408.5h1.6v1.6h-1.6Z" transform="translate(-273.2 -395.7)"/><path class="cls-2" d="M294,408.5h14.4v1.6H294Z" transform="translate(-273.2 -395.7)"/><path class="cls-2" d="M290.8,411.7h1.6v1.6h-1.6Z" transform="translate(-273.2 -395.7)"/><path class="cls-2" d="M294,411.7h14.4v1.6H294Z" transform="translate(-273.2 -395.7)"/><path class="cls-1" d="M310,437.3a5.6,5.6,0,1,1,5.6-5.6A5.6,5.6,0,0,1,310,437.3Z" transform="translate(-273.2 -395.7)"/><path class="cls-2" d="M297.2,435.7h5.6v1.6h-5.6Z" transform="translate(-273.2 -395.7)"/><path class="cls-2" d="M297.2,432.5h5.6v1.6h-5.6Z" transform="translate(-273.2 -395.7)"/><path class="cls-2" d="M297.2,429.3h5.6v1.6h-5.6Z" transform="translate(-273.2 -395.7)"/><path class="cls-2" d="M294,426.1h8.8v1.6H294Z" transform="translate(-273.2 -395.7)"/></svg>