<svg id="Layer_1" data-name="Layer 1" xmlns="http://www.w3.org/2000/svg" viewBox="0 0 51.2 51.2"><defs><style>.cls-1{fill:#00b3b2;}.cls-2{fill:#010101;}</style></defs><path class="cls-1" d="M313.26,442.32c-3.35-1.49-6.73-.91-11.18,1.44-1.18.62-2.78-1.91-4.11-1.95q.25-14.82.52-29.64L318,423.76Z" transform="translate(-272.17 -394.34)"/><path class="cls-1" d="M295.51,403.35c0-1.34.62-6.57.62-7.65l3.07-.05.93,7.49" transform="translate(-272.17 -394.34)"/><path class="cls-2" d="M312.35,423.87l-6.46-4a1,1,0,1,0-1.05,1.7l6.46,4a1,1,0,1,0,1.05-1.7Z" transform="translate(-272.17 -394.34)"/><path class="cls-2" d="M291.6,420.15a1,1,0,0,0-1.38-.31s-6.41,4.05-6.43,4.05a1,1,0,0,0-.31,1.38,1,1,0,0,0,.85.45,1,1,0,0,0,.53-.13l6.43-4.06A1,1,0,0,0,291.6,420.15Z" transform="translate(-272.17 -394.34)"/><path class="cls-2" d="M294.14,417.55a1,1,0,1,0,1,1.22A1,1,0,0,0,294.14,417.55Z" transform="translate(-272.17 -394.34)"/><path class="cls-2" d="M323.12,439.88a1,1,0,0,0-1.41-.09,9.15,9.15,0,0,1-3.45,2.27,6.09,6.09,0,0,1-4.44-.61L319,423.92a1,1,0,0,0-.44-1.14l-4.82-2.92v-8.52a1,1,0,0,0-1-1h-2v-3a1,1,0,0,0-1-1h-3.15v-3a1,1,0,0,0-1-1h-4.85v-7a1,1,0,0,0-1-1h-4a1,1,0,0,0-1,1v7h-4.85a1,1,0,0,0-1,1v3h-3.15a1,1,0,0,0-1,1v3h-2a1,1,0,0,0-1,1v8.52L277,422.78a1,1,0,0,0-.44,1.14s5.2,17.48,5.2,17.49c-.09-.3-1.69-.49-2-.53-2.92-.38-5.13,1.08-7.23,2.91a1,1,0,0,0-.1,1.41,1,1,0,0,0,1.42.09c2.16-1.87,4.59-3.31,7.45-1.88,2.59,1.3,5.26,1.85,8,.43,2.17-1.14,4.27-2.13,6.69-1l2.49,1.18a7.54,7.54,0,0,0,6.68-.06,11.42,11.42,0,0,1,4.12-1.62,8.18,8.18,0,0,1,4.14,1.08,7.62,7.62,0,0,0,5.49.5,11.06,11.06,0,0,0,4.18-2.66A1,1,0,0,0,323.12,439.88Zm-11.35-27.54v6.31l-10.42-6.31Zm-15-16h2v6h-2Zm-5.85,8h13.7v2h-13.7Zm-7.15,8h10.42l-10.42,6.31Zm13,28.71c0-.18-1.43-.5-1.61-.54a7.72,7.72,0,0,0-5.19.69,10.78,10.78,0,0,1-3.56,1.47h0a5.5,5.5,0,0,1-2.28-.18l-5.47-18.4,18.12-11Zm-10-30.71v-2h22v2ZM312,440.65c0-.31-2.8-.31-3-.29a14.24,14.24,0,0,0-4.77,1.84,5.94,5.94,0,0,1-5.44-.2V413.11l18.12,11Z" transform="translate(-272.17 -394.34)"/></svg>